HIERARCHY
ROOT Hips
{
	OFFSET 0.0000 0.0000 0.0000
	CHANNELS 6 Xposition Yposition Zposition Zrotation Yrotation Xrotation
	JOINT LeftUpLeg
	{
		OFFSET 9.0000 -3.0000 0.0000
		CHANNELS 6 Xposition Yposition Zposition Zrotation Yrotation Xrotation
		JOINT LeftLeg
		{
			OFFSET 0.0000 -42.0000 0.0000
			CHANNELS 6 Xposition Yposition Zposition Zrotation Yrotation Xrotation
			JOINT LeftFoot
			{
				OFFSET 0.0000 -41.0000 0.0000
				CHANNELS 6 Xposition Yposition Zposition Zrotation Yrotation Xrotation
				JOINT LeftToe
				{
					OFFSET 0.0000 -7.0000 12.5000
					CHANNELS 6 Xposition Yposition Zposition Zrotation Yrotation Xrotation
					End Site
					{
						OFFSET 0.0000 0.0000 4.0000
					}
				}
			}
		}
	}
	JOINT RightUpLeg
	{
		OFFSET -9.0000 -3.0000 0.0000
		CHANNELS 6 Xposition Yposition Zposition Zrotation Yrotation Xrotation
		JOINT RightLeg
		{
			OFFSET 0.0000 -42.0000 0.0000
			CHANNELS 6 Xposition Yposition Zposition Zrotation Yrotation Xrotation
			JOINT RightFoot
			{
				OFFSET 0.0000 -41.0000 0.0000
				CHANNELS 6 Xposition Yposition Zposition Zrotation Yrotation Xrotation
				JOINT RightToe
				{
					OFFSET 0.0000 -7.0000 12.5000
					CHANNELS 6 Xposition Yposition Zposition Zrotation Yrotation Xrotation
					End Site
					{
						OFFSET 0.0000 0.0000 4.0000
					}
				}
			}
		}
	}
	JOINT Spine
	{
		OFFSET 0.0000 10.0000 0.0000
		CHANNELS 6 Xposition Yposition Zposition Zrotation Yrotation Xrotation
		JOINT Spine1
		{
			OFFSET 0.0000 11.0000 0.0000
			CHANNELS 6 Xposition Yposition Zposition Zrotation Yrotation Xrotation
			JOINT Spine2
			{
				OFFSET 0.0000 11.0000 0.0000
				CHANNELS 6 Xposition Yposition Zposition Zrotation Yrotation Xrotation
				JOINT Neck
				{
					OFFSET 0.0000 11.0000 0.0000
					CHANNELS 6 Xposition Yposition Zposition Zrotation Yrotation Xrotation
					JOINT Head
					{
						OFFSET 0.0000 9.0000 0.0000
						CHANNELS 6 Xposition Yposition Zposition Zrotation Yrotation Xrotation
						End Site
						{
							OFFSET 0.0000 14.0000 0.0000
						}
					}
				}
				JOINT LeftShoulder
				{
					OFFSET 5.0000 8.0000 0.0000
					CHANNELS 6 Xposition Yposition Zposition Zrotation Yrotation Xrotation
					JOINT LeftArm
					{
						OFFSET 12.0000 0.0000 0.0000
						CHANNELS 6 Xposition Yposition Zposition Zrotation Yrotation Xrotation
						JOINT LeftForeArm
						{
							OFFSET 27.0000 0.0000 0.0000
							CHANNELS 6 Xposition Yposition Zposition Zrotation Yrotation Xrotation
							JOINT LeftHand
							{
								OFFSET 25.0000 0.0000 0.0000
								CHANNELS 6 Xposition Yposition Zposition Zrotation Yrotation Xrotation
								End Site
								{
									OFFSET 8.0000 0.0000 0.0000
								}
							}
						}
					}
				}
				JOINT RightShoulder
				{
					OFFSET -5.0000 8.0000 0.0000
					CHANNELS 6 Xposition Yposition Zposition Zrotation Yrotation Xrotation
					JOINT RightArm
					{
						OFFSET -12.0000 0.0000 0.0000
						CHANNELS 6 Xposition Yposition Zposition Zrotation Yrotation Xrotation
						JOINT RightForeArm
						{
							OFFSET -27.0000 0.0000 0.0000
							CHANNELS 6 Xposition Yposition Zposition Zrotation Yrotation Xrotation
							JOINT RightHand
							{
								OFFSET -25.0000 0.0000 0.0000
								CHANNELS 6 Xposition Yposition Zposition Zrotation Yrotation Xrotation
								End Site
								{
									OFFSET -8.0000 0.0000 0.0000
								}
							}
						}
					}
				}
			}
		}
	}
}
MOTION
Frames: 12
Frame Time: 0.0333333
0.9405 92.4077 340.0000 1.1756 1.7634 4.0000 9.0000 -3.0000 0.0000 0.0000 0.0000 -19.6946 0.0000 -42.0000 0.0000 0.0000 0.0000 18.0000 0.0000 -41.0000 0.0000 0.0000 0.0000 1.6946 0.0000 -7.0000 12.5000 0.0000 0.0000 0.0000 -9.0000 -3.0000 0.0000 0.0000 0.0000 9.6946 0.0000 -42.0000 0.0000 0.0000 0.0000 42.2705 0.0000 -41.0000 0.0000 0.0000 0.0000 -51.9651 0.0000 -7.0000 12.5000 0.0000 0.0000 0.0000 0.0000 10.0000 0.0000 0.0000 -1.1756 -2.0000 0.0000 11.0000 0.0000 0.0000 -1.1756 0.0000 0.0000 11.0000 0.0000 0.0000 -1.1756 -2.0000 0.0000 11.0000 0.0000 0.0000 1.1756 0.0000 0.0000 9.0000 0.0000 0.0000 0.0000 0.0000 5.0000 8.0000 0.0000 0.0000 0.0000 0.0000 12.0000 0.0000 0.0000 -72.0000 0.0000 -10.5801 27.0000 0.0000 0.0000 -12.0000 0.0000 -17.8779 25.0000 0.0000 0.0000 0.0000 0.0000 0.0000 -5.0000 8.0000 0.0000 0.0000 0.0000 0.0000 -12.0000 0.0000 0.0000 72.0000 0.0000 10.5801 -27.0000 0.0000 0.0000 12.0000 0.0000 -6.1221 -25.0000 0.0000 0.0000 0.0000 0.0000 0.0000
0.6200 92.9282 342.8333 0.7750 1.1625 4.0000 9.0000 -3.0000 0.0000 0.0000 0.0000 -14.6879 0.0000 -42.0000 0.0000 0.0000 0.0000 18.0000 0.0000 -41.0000 0.0000 0.0000 0.0000 -3.3121 0.0000 -7.0000 12.5000 0.0000 0.0000 0.0000 -9.0000 -3.0000 0.0000 0.0000 0.0000 4.6879 0.0000 -42.0000 0.0000 0.0000 0.0000 45.6559 0.0000 -41.0000 0.0000 0.0000 0.0000 -50.3438 0.0000 -7.0000 12.5000 0.0000 0.0000 0.0000 0.0000 10.0000 0.0000 0.0000 -0.7750 -2.0000 0.0000 11.0000 0.0000 0.0000 -0.7750 0.0000 0.0000 11.0000 0.0000 0.0000 -0.7750 -2.0000 0.0000 11.0000 0.0000 0.0000 0.7750 0.0000 0.0000 9.0000 0.0000 0.0000 0.0000 0.0000 5.0000 8.0000 0.0000 0.0000 0.0000 0.0000 12.0000 0.0000 0.0000 -72.0000 0.0000 -6.9753 27.0000 0.0000 0.0000 -12.0000 0.0000 -15.8752 25.0000 0.0000 0.0000 0.0000 0.0000 0.0000 -5.0000 8.0000 0.0000 0.0000 0.0000 0.0000 -12.0000 0.0000 0.0000 72.0000 0.0000 6.9753 -27.0000 0.0000 0.0000 12.0000 0.0000 -8.1248 -25.0000 0.0000 0.0000 0.0000 0.0000 0.0000
0.2668 93.7765 345.6667 0.3335 0.5003 4.0000 9.0000 -3.0000 0.0000 0.0000 0.0000 -9.1692 0.0000 -42.0000 0.0000 0.0000 0.0000 18.0000 0.0000 -41.0000 0.0000 0.0000 0.0000 -8.8308 0.0000 -7.0000 12.5000 0.0000 0.0000 0.0000 -9.0000 -3.0000 0.0000 0.0000 0.0000 -0.8308 0.0000 -42.0000 0.0000 0.0000 0.0000 47.5799 0.0000 -41.0000 0.0000 0.0000 0.0000 -46.7491 0.0000 -7.0000 12.5000 0.0000 0.0000 0.0000 0.0000 10.0000 0.0000 0.0000 -0.3335 -2.0000 0.0000 11.0000 0.0000 0.0000 -0.3335 0.0000 0.0000 11.0000 0.0000 0.0000 -0.3335 -2.0000 0.0000 11.0000 0.0000 0.0000 0.3335 0.0000 0.0000 9.0000 0.0000 0.0000 0.0000 0.0000 5.0000 8.0000 0.0000 0.0000 0.0000 0.0000 12.0000 0.0000 0.0000 -72.0000 0.0000 -3.0018 27.0000 0.0000 0.0000 -12.0000 0.0000 -13.6677 25.0000 0.0000 0.0000 0.0000 0.0000 0.0000 -5.0000 8.0000 0.0000 0.0000 0.0000 0.0000 -12.0000 0.0000 0.0000 72.0000 0.0000 3.0018 -27.0000 0.0000 0.0000 12.0000 0.0000 -10.3323 -25.0000 0.0000 0.0000 0.0000 0.0000 0.0000
-0.1005 94.7757 348.5000 -0.1256 -0.1884 4.0000 9.0000 -3.0000 0.0000 0.0000 0.0000 -3.4302 0.0000 -42.0000 0.0000 0.0000 0.0000 18.0000 0.0000 -41.0000 0.0000 0.0000 0.0000 -14.5698 0.0000 -7.0000 12.5000 0.0000 0.0000 0.0000 -9.0000 -3.0000 0.0000 0.0000 0.0000 -6.5698 0.0000 -42.0000 0.0000 0.0000 0.0000 47.9408 0.0000 -41.0000 0.0000 0.0000 0.0000 -41.3710 0.0000 -7.0000 12.5000 0.0000 0.0000 0.0000 0.0000 10.0000 0.0000 0.0000 0.1256 -2.0000 0.0000 11.0000 0.0000 0.0000 0.1256 0.0000 0.0000 11.0000 0.0000 0.0000 0.1256 -2.0000 0.0000 11.0000 0.0000 0.0000 -0.1256 0.0000 0.0000 9.0000 0.0000 0.0000 0.0000 0.0000 5.0000 8.0000 0.0000 0.0000 0.0000 0.0000 12.0000 0.0000 0.0000 -72.0000 0.0000 1.1302 27.0000 0.0000 0.0000 -12.0000 0.0000 -11.3721 25.0000 0.0000 0.0000 0.0000 0.0000 0.0000 -5.0000 8.0000 0.0000 0.0000 0.0000 0.0000 -12.0000 0.0000 0.0000 72.0000 0.0000 -1.1302 -27.0000 0.0000 0.0000 12.0000 0.0000 -12.6279 -25.0000 0.0000 0.0000 0.0000 0.0000 0.0000
-0.4625 95.7175 351.3333 -0.5781 -0.8671 4.0000 9.0000 -3.0000 0.0000 0.0000 0.0000 2.2258 0.0000 -42.0000 0.0000 0.0000 0.0000 18.0000 0.0000 -41.0000 0.0000 0.0000 0.0000 -20.2258 0.0000 -7.0000 12.5000 0.0000 0.0000 0.0000 -9.0000 -3.0000 0.0000 0.0000 0.0000 -12.2258 0.0000 -42.0000 0.0000 0.0000 0.0000 46.7196 0.0000 -41.0000 0.0000 0.0000 0.0000 -34.4938 0.0000 -7.0000 12.5000 0.0000 0.0000 0.0000 0.0000 10.0000 0.0000 0.0000 0.5781 -2.0000 0.0000 11.0000 0.0000 0.0000 0.5781 0.0000 0.0000 11.0000 0.0000 0.0000 0.5781 -2.0000 0.0000 11.0000 0.0000 0.0000 -0.5781 0.0000 0.0000 9.0000 0.0000 0.0000 0.0000 0.0000 5.0000 8.0000 0.0000 0.0000 0.0000 0.0000 12.0000 0.0000 0.0000 -72.0000 0.0000 5.2026 27.0000 0.0000 0.0000 -12.0000 0.0000 -9.1097 25.0000 0.0000 0.0000 0.0000 0.0000 0.0000 -5.0000 8.0000 0.0000 0.0000 0.0000 0.0000 -12.0000 0.0000 0.0000 72.0000 0.0000 -5.2026 -27.0000 0.0000 0.0000 12.0000 0.0000 -14.8903 -25.0000 0.0000 0.0000 0.0000 0.0000 0.0000
-0.8000 96.4053 354.1667 -1.0000 -1.5000 4.0000 9.0000 -3.0000 0.0000 0.0000 0.0000 7.5000 0.0000 -42.0000 0.0000 0.0000 0.0000 18.0000 0.0000 -41.0000 0.0000 0.0000 0.0000 -25.5000 0.0000 -7.0000 12.5000 0.0000 0.0000 0.0000 -9.0000 -3.0000 0.0000 0.0000 0.0000 -17.5000 0.0000 -42.0000 0.0000 0.0000 0.0000 43.9808 0.0000 -41.0000 0.0000 0.0000 0.0000 -26.4808 0.0000 -7.0000 12.5000 0.0000 0.0000 0.0000 0.0000 10.0000 0.0000 0.0000 1.0000 -2.0000 0.0000 11.0000 0.0000 0.0000 1.0000 0.0000 0.0000 11.0000 0.0000 0.0000 1.0000 -2.0000 0.0000 11.0000 0.0000 0.0000 -1.0000 0.0000 0.0000 9.0000 0.0000 0.0000 0.0000 0.0000 5.0000 8.0000 0.0000 0.0000 0.0000 0.0000 12.0000 0.0000 0.0000 -72.0000 0.0000 9.0000 27.0000 0.0000 0.0000 -12.0000 0.0000 -7.0000 25.0000 0.0000 0.0000 0.0000 0.0000 0.0000 -5.0000 8.0000 0.0000 0.0000 0.0000 0.0000 -12.0000 0.0000 0.0000 72.0000 0.0000 -9.0000 -27.0000 0.0000 0.0000 12.0000 0.0000 -17.0000 -25.0000 0.0000 0.0000 0.0000 0.0000 0.0000
-1.0953 96.6957 357.0000 -1.3691 -2.0536 4.0000 9.0000 -3.0000 0.0000 0.0000 0.0000 12.1137 0.0000 -42.0000 0.0000 0.0000 0.0000 18.0000 0.0000 -41.0000 0.0000 0.0000 0.0000 -30.1137 0.0000 -7.0000 12.5000 0.0000 0.0000 0.0000 -9.0000 -3.0000 0.0000 0.0000 0.0000 -22.1137 0.0000 -42.0000 0.0000 0.0000 0.0000 39.8691 0.0000 -41.0000 0.0000 0.0000 0.0000 -17.7554 0.0000 -7.0000 12.5000 0.0000 0.0000 0.0000 0.0000 10.0000 0.0000 0.0000 1.3691 -2.0000 0.0000 11.0000 0.0000 0.0000 1.3691 0.0000 0.0000 11.0000 0.0000 0.0000 1.3691 -2.0000 0.0000 11.0000 0.0000 0.0000 -1.3691 0.0000 0.0000 9.0000 0.0000 0.0000 0.0000 0.0000 5.0000 8.0000 0.0000 0.0000 0.0000 0.0000 12.0000 0.0000 0.0000 -72.0000 0.0000 12.3218 27.0000 0.0000 0.0000 -12.0000 0.0000 -5.1545 25.0000 0.0000 0.0000 0.0000 0.0000 0.0000 -5.0000 8.0000 0.0000 0.0000 0.0000 0.0000 -12.0000 0.0000 0.0000 72.0000 0.0000 -12.3218 -27.0000 0.0000 0.0000 12.0000 0.0000 -18.8455 -25.0000 0.0000 0.0000 0.0000 0.0000 0.0000
-1.3327 96.5281 359.8333 -1.6658 -2.4988 4.0000 9.0000 -3.0000 0.0000 0.0000 0.0000 15.8230 0.0000 -42.0000 0.0000 0.0000 0.0000 18.0000 0.0000 -41.0000 0.0000 0.0000 0.0000 -33.8230 0.0000 -7.0000 12.5000 0.0000 0.0000 0.0000 -9.0000 -3.0000 0.0000 0.0000 0.0000 -25.8230 0.0000 -42.0000 0.0000 0.0000 0.0000 34.6017 0.0000 -41.0000 0.0000 0.0000 0.0000 -8.7787 0.0000 -7.0000 12.5000 0.0000 0.0000 0.0000 0.0000 10.0000 0.0000 0.0000 1.6658 -2.0000 0.0000 11.0000 0.0000 0.0000 1.6658 0.0000 0.0000 11.0000 0.0000 0.0000 1.6658 -2.0000 0.0000 11.0000 0.0000 0.0000 -1.6658 0.0000 0.0000 9.0000 0.0000 0.0000 0.0000 0.0000 5.0000 8.0000 0.0000 0.0000 0.0000 0.0000 12.0000 0.0000 0.0000 -72.0000 0.0000 14.9926 27.0000 0.0000 0.0000 -12.0000 0.0000 -3.6708 25.0000 0.0000 0.0000 0.0000 0.0000 0.0000 -5.0000 8.0000 0.0000 0.0000 0.0000 0.0000 -12.0000 0.0000 0.0000 72.0000 0.0000 -14.9926 -27.0000 0.0000 0.0000 12.0000 0.0000 -20.3292 -25.0000 0.0000 0.0000 0.0000 0.0000 0.0000
-1.4997 95.9375 362.6667 -1.8746 -2.8118 4.0000 9.0000 -3.0000 0.0000 0.0000 0.0000 18.4320 0.0000 -42.0000 0.0000 0.0000 0.0000 18.0000 0.0000 -41.0000 0.0000 0.0000 0.0000 -36.4320 0.0000 -7.0000 12.5000 0.0000 0.0000 0.0000 -9.0000 -3.0000 0.0000 0.0000 0.0000 -28.4320 0.0000 -42.0000 0.0000 0.0000 0.0000 28.4572 0.0000 -41.0000 0.0000 0.0000 0.0000 -0.0251 0.0000 -7.0000 12.5000 0.0000 0.0000 0.0000 0.0000 10.0000 0.0000 0.0000 1.8746 -2.0000 0.0000 11.0000 0.0000 0.0000 1.8746 0.0000 0.0000 11.0000 0.0000 0.0000 1.8746 -2.0000 0.0000 11.0000 0.0000 0.0000 -1.8746 0.0000 0.0000 9.0000 0.0000 0.0000 0.0000 0.0000 5.0000 8.0000 0.0000 0.0000 0.0000 0.0000 12.0000 0.0000 0.0000 -72.0000 0.0000 16.8711 27.0000 0.0000 0.0000 -12.0000 0.0000 -2.6272 25.0000 0.0000 0.0000 0.0000 0.0000 0.0000 -5.0000 8.0000 0.0000 0.0000 0.0000 0.0000 -12.0000 0.0000 0.0000 72.0000 0.0000 -16.8711 -27.0000 0.0000 0.0000 12.0000 0.0000 -21.3728 -25.0000 0.0000 0.0000 0.0000 0.0000 0.0000
-1.5874 95.0471 365.5000 -1.9842 -2.9763 4.0000 9.0000 -3.0000 0.0000 0.0000 0.0000 19.8029 0.0000 -42.0000 0.0000 0.0000 0.0000 18.0000 0.0000 -41.0000 0.0000 0.0000 0.0000 -37.8029 0.0000 -7.0000 12.5000 0.0000 0.0000 0.0000 -9.0000 -3.0000 0.0000 0.0000 0.0000 -29.8029 0.0000 -42.0000 0.0000 0.0000 0.0000 21.7600 0.0000 -41.0000 0.0000 0.0000 0.0000 8.0429 0.0000 -7.0000 12.5000 0.0000 0.0000 0.0000 0.0000 10.0000 0.0000 0.0000 1.9842 -2.0000 0.0000 11.0000 0.0000 0.0000 1.9842 0.0000 0.0000 11.0000 0.0000 0.0000 1.9842 -2.0000 0.0000 11.0000 0.0000 0.0000 -1.9842 0.0000 0.0000 9.0000 0.0000 0.0000 0.0000 0.0000 5.0000 8.0000 0.0000 0.0000 0.0000 0.0000 12.0000 0.0000 0.0000 -72.0000 0.0000 17.8581 27.0000 0.0000 0.0000 -12.0000 0.0000 -2.0789 25.0000 0.0000 0.0000 0.0000 0.0000 0.0000 -5.0000 8.0000 0.0000 0.0000 0.0000 0.0000 -12.0000 0.0000 0.0000 72.0000 0.0000 -17.8581 -27.0000 0.0000 0.0000 12.0000 0.0000 -21.9211 -25.0000 0.0000 0.0000 0.0000 0.0000 0.0000
-1.5912 94.0426 368.3333 -1.9890 -2.9836 4.0000 9.0000 -3.0000 0.0000 0.0000 0.0000 19.8630 0.0000 -42.0000 0.0000 0.0000 0.0000 21.1359 0.0000 -41.0000 0.0000 0.0000 0.0000 -40.9989 0.0000 -7.0000 12.5000 0.0000 0.0000 0.0000 -9.0000 -3.0000 0.0000 0.0000 0.0000 -29.8630 0.0000 -42.0000 0.0000 0.0000 0.0000 18.0000 0.0000 -41.0000 0.0000 0.0000 0.0000 11.8630 0.0000 -7.0000 12.5000 0.0000 0.0000 0.0000 0.0000 10.0000 0.0000 0.0000 1.9890 -2.0000 0.0000 11.0000 0.0000 0.0000 1.9890 0.0000 0.0000 11.0000 0.0000 0.0000 1.9890 -2.0000 0.0000 11.0000 0.0000 0.0000 -1.9890 0.0000 0.0000 9.0000 0.0000 0.0000 0.0000 0.0000 5.0000 8.0000 0.0000 0.0000 0.0000 0.0000 12.0000 0.0000 0.0000 -72.0000 0.0000 17.9014 27.0000 0.0000 0.0000 -12.0000 0.0000 -2.0548 25.0000 0.0000 0.0000 0.0000 0.0000 0.0000 -5.0000 8.0000 0.0000 0.0000 0.0000 0.0000 -12.0000 0.0000 0.0000 72.0000 0.0000 -17.9014 -27.0000 0.0000 0.0000 12.0000 0.0000 -21.9452 -25.0000 0.0000 0.0000 0.0000 0.0000 0.0000
-1.5110 93.1335 371.1667 -1.8888 -2.8331 4.0000 9.0000 -3.0000 0.0000 0.0000 0.0000 18.6094 0.0000 -42.0000 0.0000 0.0000 0.0000 27.8660 0.0000 -41.0000 0.0000 0.0000 0.0000 -46.4754 0.0000 -7.0000 12.5000 0.0000 0.0000 0.0000 -9.0000 -3.0000 0.0000 0.0000 0.0000 -28.6094 0.0000 -42.0000 0.0000 0.0000 0.0000 18.0000 0.0000 -41.0000 0.0000 0.0000 0.0000 10.6094 0.0000 -7.0000 12.5000 0.0000 0.0000 0.0000 0.0000 10.0000 0.0000 0.0000 1.8888 -2.0000 0.0000 11.0000 0.0000 0.0000 1.8888 0.0000 0.0000 11.0000 0.0000 0.0000 1.8888 -2.0000 0.0000 11.0000 0.0000 0.0000 -1.8888 0.0000 0.0000 9.0000 0.0000 0.0000 0.0000 0.0000 5.0000 8.0000 0.0000 0.0000 0.0000 0.0000 12.0000 0.0000 0.0000 -72.0000 0.0000 16.9988 27.0000 0.0000 0.0000 -12.0000 0.0000 -2.5562 25.0000 0.0000 0.0000 0.0000 0.0000 0.0000 -5.0000 8.0000 0.0000 0.0000 0.0000 0.0000 -12.0000 0.0000 0.0000 72.0000 0.0000 -16.9988 -27.0000 0.0000 0.0000 12.0000 0.0000 -21.4438 -25.0000 0.0000 0.0000 0.0000 0.0000 0.0000
